<svg id="visual" viewBox="0 0 900 600" width="900" height="600" xmlns="http://www.w3.org/2000/svg" xmlns:xlink="http://www.w3.org/1999/xlink" version="1.1"><rect x="0" y="0" width="900" height="600" fill="#001220"></rect><defs><linearGradient id="grad1_0" x1="33.3%" y1="0%" x2="100%" y2="100%"><stop offset="20%" stop-color="#001220" stop-opacity="1"></stop><stop offset="80%" stop-color="#001220" stop-opacity="1"></stop></linearGradient></defs><defs><linearGradient id="grad2_0" x1="0%" y1="0%" x2="66.7%" y2="100%"><stop offset="20%" stop-color="#001220" stop-opacity="1"></stop><stop offset="80%" stop-color="#001220" stop-opacity="1"></stop></linearGradient></defs><g transform="translate(900, 0)"><path d="M0 486.7C-66.3 481.5 -132.7 476.2 -185.6 448.1C-238.5 420 -278.1 369 -323.9 323.9C-369.6 278.7 -421.5 239.3 -449.7 186.3C-477.9 133.3 -482.3 66.6 -486.7 0L0 0Z" fill="#FBAE3C"></path></g><g transform="translate(0, 600)"><path d="M0 -486.7C55.5 -465.4 111 -444.1 176.4 -425.9C241.8 -407.7 317.1 -392.5 344.2 -344.2C371.3 -295.9 350.1 -214.4 365.9 -151.5C381.6 -88.7 434.2 -44.3 486.7 0L0 0Z" fill="#FBAE3C"></path></g></svg>